<svg width="122" height="39" viewBox="0 0 122 39" fill="none" xmlns="http://www.w3.org/2000/svg">
<path d="M2.108 31V9.114H6.975V31H2.108ZM5.828 31V26.784H17.825V31H5.828ZM5.828 21.855V17.794H16.74V21.855H5.828ZM5.828 13.299V9.114H17.67V13.299H5.828ZM21.1689 25.172V21.018H32.1429V25.172H21.1689ZM43.1287 31.341C41.3307 31.341 39.7807 31.0517 38.4787 30.473C37.1974 29.8737 36.0194 28.9747 34.9447 27.776L38.1067 24.645C38.8094 25.451 39.5844 26.0813 40.4317 26.536C41.2997 26.97 42.3021 27.187 43.4388 27.187C44.4721 27.187 45.2677 27.001 45.8257 26.629C46.4044 26.257 46.6937 25.7403 46.6937 25.079C46.6937 24.4797 46.5077 23.994 46.1357 23.622C45.7638 23.25 45.2678 22.9297 44.6478 22.661C44.0484 22.3923 43.3767 22.134 42.6327 21.886C41.9094 21.638 41.1861 21.359 40.4627 21.049C39.7394 20.7183 39.0677 20.3153 38.4477 19.84C37.8484 19.344 37.3627 18.7343 36.9907 18.011C36.6187 17.267 36.4327 16.337 36.4327 15.221C36.4327 13.8777 36.7531 12.7203 37.3937 11.749C38.0551 10.7777 38.9644 10.044 40.1217 9.548C41.2791 9.03133 42.6121 8.773 44.1207 8.773C45.6501 8.773 47.0451 9.04167 48.3058 9.579C49.5871 10.1163 50.6411 10.85 51.4678 11.78L48.3058 14.911C47.6444 14.229 46.9728 13.7227 46.2908 13.392C45.6294 13.0613 44.8751 12.896 44.0278 12.896C43.1804 12.896 42.5087 13.0613 42.0128 13.392C41.5168 13.702 41.2687 14.1567 41.2687 14.756C41.2687 15.314 41.4547 15.7687 41.8267 16.12C42.1987 16.4507 42.6844 16.74 43.2838 16.988C43.9038 17.236 44.5754 17.484 45.2988 17.732C46.0427 17.98 46.7764 18.2693 47.4998 18.6C48.2231 18.9307 48.8844 19.3543 49.4837 19.871C50.1038 20.367 50.5998 21.0077 50.9718 21.793C51.3438 22.5577 51.5297 23.5083 51.5297 24.645C51.5297 26.7323 50.7857 28.3753 49.2978 29.574C47.8097 30.752 45.7534 31.341 43.1287 31.341ZM64.116 31.31C63.1033 31.31 62.1733 31.1137 61.326 30.721C60.4787 30.3283 59.7863 29.791 59.249 29.109C58.7117 28.4063 58.4017 27.6107 58.319 26.722V20.367C58.4017 19.4783 58.7117 18.6723 59.249 17.949C59.7863 17.2257 60.4787 16.6573 61.326 16.244C62.1733 15.8307 63.1033 15.624 64.116 15.624C65.542 15.624 66.8027 15.965 67.898 16.647C69.014 17.329 69.882 18.259 70.502 19.437C71.1427 20.615 71.463 21.9583 71.463 23.467C71.463 24.9757 71.1427 26.319 70.502 27.497C69.882 28.675 69.014 29.605 67.898 30.287C66.8027 30.969 65.542 31.31 64.116 31.31ZM63.248 27.032C63.93 27.032 64.519 26.877 65.015 26.567C65.5317 26.257 65.9347 25.8333 66.224 25.296C66.5133 24.7587 66.658 24.149 66.658 23.467C66.658 22.7643 66.5133 22.1443 66.224 21.607C65.9347 21.0697 65.5317 20.6563 65.015 20.367C64.519 20.057 63.9403 19.902 63.279 19.902C62.6177 19.902 62.0287 20.057 61.512 20.367C61.016 20.6563 60.6233 21.0697 60.334 21.607C60.0447 22.1443 59.9 22.7643 59.9 23.467C59.9 24.149 60.0343 24.7587 60.303 25.296C60.5923 25.8333 60.9953 26.257 61.512 26.567C62.0287 26.877 62.6073 27.032 63.248 27.032ZM55.436 37.355V15.934H60.179V19.809L59.404 23.467L60.117 27.125V37.355H55.436ZM96.5425 31V15.934H101.285V31H96.5425ZM101.285 22.723L99.3015 21.173C99.6941 19.4163 100.355 18.0523 101.285 17.081C102.215 16.1097 103.507 15.624 105.16 15.624C105.884 15.624 106.514 15.7377 107.051 15.965C107.609 16.1717 108.095 16.5023 108.508 16.957L105.687 20.522C105.481 20.2947 105.222 20.119 104.912 19.995C104.602 19.871 104.251 19.809 103.858 19.809C103.073 19.809 102.443 20.057 101.967 20.553C101.513 21.0283 101.285 21.7517 101.285 22.723ZM113.302 31V9.703H118.045V31H113.302ZM109.892 19.964V15.934H121.455V19.964H109.892Z" fill="white"/>
<path d="M84.0171 21.9934C85.94 22.039 87.7856 22.5932 89.38 23.5629C86.4913 26.5983 82.3915 28.703 78.215 29.1577C77.3356 28.533 76.5616 27.7696 75.9248 26.8994C79.0023 26.4192 81.8119 24.7992 83.756 22.3257L84.0171 21.9934Z" fill="white"/>
<path d="M92.4402 26.3653C90.6653 29.1517 87.5485 30.9999 84 30.9999C82.7178 30.9999 81.4919 30.7586 80.3653 30.3188C84.2683 29.4477 87.9424 27.3132 90.6152 24.439C91.2956 24.9979 91.91 25.6432 92.4402 26.3653Z" fill="white"/>
<path d="M93.6241 20.3581L93.6261 20.3601L93.9965 20.7327C93.9988 20.8215 94 20.9106 94 20.9999C94 22.3876 93.7173 23.7093 93.2065 24.9105C90.9642 22.2085 87.6375 20.5871 84.0812 20.4946C83.2524 19.0502 82.8302 17.4347 82.828 15.8111C86.8825 15.8899 90.7527 17.5177 93.6241 20.3581Z" fill="white"/>
<path d="M82.9458 14.3133C83.0638 13.5752 83.2705 12.8459 83.5673 12.141L84.0477 11C88.6314 11.0214 92.4864 14.1267 93.6445 18.3477C90.6556 15.8389 86.881 14.4099 82.9458 14.3133Z" fill="white"/>
<path d="M82.5766 21.3988C81.6485 22.5796 80.4948 23.5397 79.1999 24.2379C77.622 20.4338 77.5151 16.2625 78.8793 12.4087C79.9313 11.7803 81.1083 11.3397 82.3642 11.133L82.1849 11.5589C80.8661 14.691 81.0819 18.2395 82.7467 21.1824L82.5766 21.3988Z" fill="white"/>
<path d="M76.8586 13.9999C75.0903 15.8036 74 18.2744 74 20.9999C74 22.6173 74.384 24.145 75.0658 25.4969C76.0196 25.4039 76.9494 25.1873 77.8331 24.8577C76.378 21.3757 76.0551 17.6044 76.8643 13.994L76.8586 13.9999Z" fill="white"/>
</svg>
